<?xml version="1.0" encoding="utf-8"?>
<!-- Generator: Adobe Illustrator 16.0.0, SVG Export Plug-In . SVG Version: 6.00 Build 0)  -->
<!DOCTYPE svg PUBLIC "-//W3C//DTD SVG 1.1//EN" "http://www.w3.org/Graphics/SVG/1.1/DTD/svg11.dtd">
<svg version="1.1" id="Layer_1" xmlns="http://www.w3.org/2000/svg" xmlns:xlink="http://www.w3.org/1999/xlink" x="0px" y="0px"
	 width="2487.5px" height="603.7px" viewBox="0 0 2487.5 603.7" style="enable-background:new 0 0 2487.5 603.7;"
	 xml:space="preserve">
<style type="text/css">
<![CDATA[
	.st0{fill-rule:evenodd;clip-rule:evenodd;fill:none;}
	.st1{fill-rule:evenodd;clip-rule:evenodd;fill:#666666;}
	.st2{fill-rule:evenodd;clip-rule:evenodd;fill:#676767;}
	.st3{fill-rule:evenodd;clip-rule:evenodd;fill:#686868;}
	.st4{fill-rule:evenodd;clip-rule:evenodd;fill:#696969;}
	.st5{fill-rule:evenodd;clip-rule:evenodd;fill:#6A6A6A;}
	.st6{fill-rule:evenodd;clip-rule:evenodd;fill:#019901;}
	.st7{fill-rule:evenodd;clip-rule:evenodd;fill:#029902;}
	.st8{fill-rule:evenodd;clip-rule:evenodd;fill:#039903;}
	.st9{fill-rule:evenodd;clip-rule:evenodd;fill:#039A03;}
]]>
</style>
<g>
	<path class="st0" d="M219.9,433.7c-1.4-0.8-2.4-1.4-3.4-2c-15.4-8.1-31-16.1-46.7-23.6c-45.4-21.6-92.1-39.1-142.5-44.8
		c-8.9-1-17.8-2-27.2-1.4c0,1.9,0,3.5,0,5.2c0,60.5,0,120.9,0,181.4c0,30.4,24.9,55.2,55.4,55.2c61.1,0,122.3,0,183.4,0
		c1.6,0,3.2,0.5,5.1-0.6c-9.4-27.1-15.6-54.9-19.3-83.4C220.9,491.2,219.5,462.7,219.9,433.7z M361.2,0c0.4,2.2,1.6,2.9,2.5,3.9
		c20.2,22.1,36.9,46.7,50.2,73.6c26.1,52.8,37.7,109,39,167.7c0.1,6.1,0,12.2,0,18.2c53.1,3.2,103.3-3.8,150.6-27.1
		c0.1-1.7,0.2-2.8,0.2-4c0-59,0.1-117.9,0-176.9C603.5,24.3,578.6,0,547.3,0C487,0,426.7,0,366.4,0C364.8,0,363.2,0,361.2,0z
		 M225.7,195.8C225.8,127.4,189,39.1,144.3,0C115,0,85.6,0,56.1,0c-1.2,0-2.3,0-3.5,0C22.6,2,0.1,26.2,0.1,56.2c0,27.7,0,55.3,0,83
		c0,1.8-0.5,3.6,0.7,5.6C79.7,143.5,153,167.3,225.7,195.8z M422.5,260.1c0.1-9.4-0.1-18.2-0.2-27c-0.5-31.4-3.4-62.4-10.2-93.1
		c-10-44.7-28.7-85.2-58.7-120.2c-6.1-7.1-12.2-14.1-18.7-19.5c-23.2,0-45.5,0-68.3,0C330,70.4,356.2,154,358.6,246.5
		C379.7,252.4,400.7,257.2,422.5,260.1z M327.6,236.7c0-2.4,0-4,0-5.7c-0.8-26-2.7-51.8-7.5-77.4c-6.5-34.6-17.6-67.4-35.7-97.8
		C271.9,35.1,257.1,16.5,240,0.4c-23.3,0-46,0-69.1,0c52.7,59.8,78.5,130.2,86.2,208.1C280.2,218.2,303,228.4,327.6,236.7z
		 M2120.8,330.3c1-21.4-0.3-42-8.6-61.6c-14-33.1-43-46.3-77.5-41.1c-24.2,3.6-41,17.9-52.5,38.9c-7.6,13.9-11.3,29-12.5,44.8
		c-1.7,21-0.1,41.6,7.4,61.4c9,23.8,25.8,39.1,50.7,45.1c19.2,4.6,38.3,3.4,57.4-0.6c7.6-1.6,15.2-3.5,22-6.8c0-7.9,0-15.4,0-23.2
		c-14.4,7.4-29.2,11.6-44.7,13.1c-20,2-37.6-3.3-51.2-18.9c-8.5-9.8-13-21.5-15.2-34.2c-1-5.5-1.8-11-1-17
		C2037.1,330.3,2078.8,330.3,2120.8,330.3z M1455.6,330.3c0.8-18.5-0.2-36.4-5.9-53.6c-12.7-38.7-42.6-54.9-81-49
		c-26.4,4.1-44.2,20.4-54.6,44.2c-14.7,33.9-14.4,68.8-1.6,103.1c9.2,24.7,28.2,38.8,54,43.8c16.1,3.1,32.1,2.3,48.1-0.7
		c9.3-1.7,18.4-3.9,26.9-7.7c0-7.8,0-15.2,0-23.2c-9,4.7-18.1,7.9-27.4,10.1c-12.7,3-25.5,4.9-38.5,1.9c-24-5.6-37.3-21.8-43.6-44.6
		c-2.2-7.8-3.6-15.8-2.9-24.5C1371.5,330.3,1413.4,330.3,1455.6,330.3z M1078.8,303c-3.9,0-7.4,0-10.9,0c-19.3,0.3-38.6,1-57.4,5.9
		c-13.4,3.5-25.9,8.8-35.6,19.1c-11.8,12.5-15.2,27.9-14,44.4c1.4,19.7,10.7,34.4,29.1,42.5c13.8,6,28.3,7.4,43.1,4.8
		c19.6-3.4,35.7-12.4,46.1-30c0.4-0.6,0.6-1.6,2.2-1.3c0,9.1,0,18.4,0,27.8c7.7,0,15,0,22.6,0c-1.1-9.9-1.8-19.5-1.8-29.1
		c0-30.7,0-61.3,0-92c0-8.2-0.6-16.3-2.1-24.3c-4.4-23.5-17.4-37.2-40.8-42.1c-17.1-3.6-34.1-2.4-51,1.8c-8.9,2.2-17.6,4.7-25.5,8.7
		c0,7.5,0,14.6,0,21.5c1.3,0.3,2-0.3,2.7-0.7c18.2-10.8,38-14.6,59-13.2c15.6,1.1,26.6,9,31.3,23
		C1079.3,280.3,1079.2,291.3,1078.8,303z M443.9,427.9c55.1,7.6,108.4,3.6,159.2-18.6c0-24.7,0-48.6,0-73.1
		c-25,9.4-50.1,15.5-75.9,18.6c-26,3.2-52.1,3-78.6,1C446.9,379.9,444.9,403.7,443.9,427.9z M227,216.4c-1-0.5-1.9-1-2.8-1.3
		c-21.2-8.4-42.4-16.6-64-23.8c-42.1-14.1-85-24.3-129.6-25.3c-10.1-0.2-20.2-0.3-30.1,1.2c0,16.4,0,32.5,0,48.7
		c10.2,0.1,19.9,0.2,29.7,0.8c24.8,1.5,49.2,5.4,73.4,10.9c40.4,9.2,79.5,22.8,118,37.9c1.6,0.6,3.2,1.9,5.4,1.3
		C228.3,249.9,227.6,233.2,227,216.4z M910.9,167.7c-1.6-0.7-2.6-1.3-3.7-1.7c-2.2-0.8-4.4-1.6-6.6-2.1c-25.2-5.9-50.6-7.8-76.2-3
		c-40.4,7.6-70.3,29.4-87.2,67.1c-16,35.8-16.6,73-5.3,110.2c12.2,40,39.1,65.8,79.3,77.2c25.6,7.3,51.6,6.8,77.6,1.9
		c7.7-1.5,15.2-3.3,22.1-7.5c-0.5-7.3-1-14.3-1.5-21.8c-4.5,1.9-8.3,3.9-12.4,5c-21.8,6-43.9,7.5-66.2,3.8c-31-5.2-55-21.1-68.5-50
		c-16.2-34.5-16.8-70.2-3.5-105.8c9.5-25.6,27.5-43.7,53.1-53.7c15.1-5.9,31-7.4,47.1-6.9c16.7,0.6,33.1,2.8,48.6,9.8
		c0.6,0.3,1.2,0.4,2.1-0.2C910,182.8,910.5,175.4,910.9,167.7z M223.6,344.3c1-19.5,2.4-38.2,2.9-56.9c-0.8-0.4-1.3-0.8-1.9-1.1
		c-38.3-15.3-76.9-29.8-117.2-39.2c-30.1-7-60.6-10.9-91.5-10.1c-5.2,0.1-10.5,0.3-15.8,1.3c0,7.2,0,14,0,20.8c0,6.9,0,13.8,0,20.8
		C79.9,283.3,152.2,310.6,223.6,344.3z M1497.6,231c1.5,62,0.1,123.5,0.8,185.1c8.1,0,15.5,0,22.8,0c0.8-2.1,0.5-3.9,0.5-5.7
		c0-32.2,0.1-64.3,0-96.5c0-7.4,0.7-14.6,2.2-21.8c2.8-12.6,7.8-24.1,17.4-33c11.2-10.4,24.9-13.5,39.8-12.4
		c16.2,1.2,27.5,9.2,33.6,24.2c3.9,9.7,5.2,19.9,5.2,30.3c0,36.5,0,73,0,109.5c0,1.8-0.5,3.6,0.5,5.3c7.6,0,15.1,0,22.7,0
		c0.1-1.3,0.2-2.1,0.2-2.9c0-38.3,0.1-76.6-0.1-115c-0.1-9.8-0.8-19.6-3.6-29.1c-5.5-18.8-16.3-32.5-35.3-39
		c-10.1-3.4-20.6-3.8-31.1-3.2c-23.1,1.2-40.6,11.4-51.2,32.4c-0.5,1-0.7,2.4-2.6,2.9c0-10.5,0-20.8,0-31.2
		C1511.9,231,1504.8,231,1497.6,231z M603.7,519.2c-52.4,15.9-104.7,17.3-158,8.5c2.9,26.5,7.8,51.6,16.2,76c2.1,0,3.6,0,5,0
		c27.1,0,54.3,0,81.4,0c25.2,0,47.7-17.6,53.5-42.1C605.2,547.9,603.1,534,603.7,519.2z M2285.6,416.1c8.1,0,15.5,0,23,0
		c0.1-1.2,0.2-2,0.2-2.8c0-39.5,0-79,0-118.5c0-8.2-1.1-16.3-3.1-24.2c-5-19.4-16-33.8-35.6-40.5c-8.8-3-17.9-3.5-27.1-3.4
		c-25.1,0.2-44.3,10.3-55.8,33.3c-0.4,0.8-0.4,2.5-2.5,1.9c0-10.2,0-20.5,0-30.8c-7.4,0-14.5,0-21.4,0c1.5,61.8,0.2,123.3,0.8,184.9
		c7.8,0,15.2,0,22.9,0c0-2.2,0-4,0-5.9c0-31.7-0.1-63.3,0.1-95c0.1-12.9,1.8-25.5,7-37.5c9-20.7,26.3-31.8,48.8-31.2
		c21.2,0.5,34.5,11.1,39.9,31.6c2,7.6,2.9,15.4,2.9,23.2c0.1,36.3,0,72.6,0,109C2285.6,412.1,2285.6,413.9,2285.6,416.1z
		 M320.9,485.8c-24.4-11.4-47.8-24.1-71.9-36.7c-1.1,53.2,2.7,104.8,20.3,154.4c24.5,0,48.6,0,73,0c-6.3-19.2-11-38.4-14.5-57.8
		C324.4,525.9,322.4,506.1,320.9,485.8z M0.3,340.6c79.2,5.9,150.2,35.5,219.7,71.3c0.8-15.9,1.5-31.3,2.3-46.5
		c-0.8-0.5-1.1-0.9-1.6-1.1c-11.3-5.3-22.6-10.6-33.9-15.8c-50.2-22.7-101.6-41.4-157.1-46.2c-9.7-0.8-19.5-1.4-29.4-1.1
		C0.3,314.6,0.3,327.3,0.3,340.6z M444.2,506.9c54.5,9.1,107.7,6.5,159.2-14.6c0-18.7,0-36.9,0-55.7
		C550.8,454,497.5,456.5,443,448.5C443.2,468.4,442.3,487.5,444.2,506.9z M2460.7,251c-37.3,49-74.2,97.5-110.8,145.5
		c0,6.9,0,13.1,0,19.7c46,0,91.7,0,137.7,0c0-6.5,0-12.8,0-19.6c-36.9,0-73.5,0-111,0c37.5-49.1,74.4-97.4,110.9-145.1
		c0-7.3,0-13.8,0-20.3c-44.6,0-88.9,0-133.1,0c0,6.7,0,13.1,0,19.8C2389.8,251,2424.8,251,2460.7,251z M1822.1,162.9
		c0,84.7,0,169,0,253.2c42.4,0,84.5,0,126.4,0c0-7.4,0-14.5,0-22.1c-33.9,0-67.5,0-101.7,0c0-77.4,0-154.2,0-231.1
		C1838.3,162.9,1830.3,162.9,1822.1,162.9z M450.2,333.9c37.6,7.9,118.3-6.3,153.1-26.7c0-13.9,0-27.7,0-42.2
		c-24.3,9.3-49,15.3-74.3,18.5c-25.3,3.2-50.7,3.4-76.6,1.5C452.2,301.6,451,317.8,450.2,333.9z M367.5,603.6c23.4,0,46.3,0,69.8,0
		c-9.1-26.7-14.7-54-18.3-81.7c-24-5.8-47-13.9-69.9-23.4C350.9,534.7,356.1,569.6,367.5,603.6z M1178.6,416.2
		c0-91.1,0-181.6,0-272.1c-7.7,0-15.1,0-22.4,0c0,90.9,0,181.4,0,272.1C1163.8,416.2,1171.1,416.2,1178.6,416.2z M1259.5,416.2
		c0-91.1,0-181.6,0-272.1c-7.7,0-15.1,0-22.4,0c0,90.9,0,181.4,0,272.1C1244.7,416.2,1251.9,416.2,1259.5,416.2z M355.6,336.3
		c-1.6,23-3.2,45.2-4.8,67.6c21,7.8,42,14,64,18.8c0.5-23.8,2.2-47.1,3.4-70.9C397.1,348.1,376.6,342.9,355.6,336.3z M325.1,326
		c-22.7-8.1-44.6-17.2-67.1-26.2c-1.3,20.1-2.6,39.7-3.9,59.4c22.1,11.3,43.8,23.1,67.1,32.8C322.5,369.9,323.8,348.2,325.1,326z
		 M416.9,501.1c-1.8-19.6-2.1-38.7-2.5-58.2c-21.9-4.8-43.1-11.8-64.7-19.8c-0.8,18.9-1.5,37.1-1.2,55.4
		C370.9,487.7,393.3,495.3,416.9,501.1z M249.9,428.1c23.4,13,45.8,26.6,70.2,37.7c-0.4-18.5-0.2-36.6,0.1-54.7
		c-22.8-9.9-45.1-20.6-67.8-31.5C251.6,396.1,250,411.9,249.9,428.1z M258.3,228.9c0.9,17.5,0.8,34.5,0.3,51.4
		c22.4,9.3,44.2,19.2,67.3,26.8c1.3-17.4,1.3-34.2,1.9-51.2C304.7,247.6,281.9,238.4,258.3,228.9z M422.1,281.3
		c-21.8-3.4-42.5-8.8-63.5-15.1c-0.1,17.4-0.9,34.1-1.7,50.9c20.8,6,41.3,10.6,62.7,13.8C420.5,314.3,421.3,298,422.1,281.3z
		 M1778.7,306c-30.7,0-60.9,0-91.1,0c0,8.4,0,16.5,0,24.6c30.6,0,60.8,0,91.1,0C1778.7,322.3,1778.7,314.3,1778.7,306z"/>
	<path class="st1" d="M219.9,433.7c-0.5,29,1,57.5,4.7,85.9c3.7,28.4,9.9,56.3,19.3,83.4c-1.8,1-3.5,0.6-5.1,0.6
		c-61.1,0-122.3,0-183.4,0c-30.5,0-55.4-24.8-55.4-55.2c0-60.5,0-120.9,0-181.4c0-1.6,0-3.3,0-5.2c9.4-0.6,18.3,0.4,27.2,1.4
		c50.4,5.7,97.1,23.2,142.5,44.8c15.8,7.5,31.3,15.5,46.7,23.6C217.5,432.3,218.5,432.9,219.9,433.7z"/>
	<path class="st1" d="M361.2,0c2,0,3.6,0,5.2,0C426.7,0,487,0,547.3,0c31.3,0,56.2,24.3,56.3,55.5c0.2,59,0,117.9,0,176.9
		c0,1.2-0.1,2.3-0.2,4c-47.3,23.3-97.5,30.3-150.6,27.1c0-6.1,0.1-12.1,0-18.2c-1.3-58.6-13-114.8-39-167.7
		C400.6,50.7,383.9,26,363.7,3.9C362.8,3,361.6,2.2,361.2,0z"/>
	<path class="st1" d="M225.7,195.8c-72.7-28.5-146-52.3-224.9-51c-1.2-2-0.7-3.8-0.7-5.6c0-27.7,0-55.3,0-83
		C0.1,26.2,22.6,2,52.6,0.1c1.2-0.1,2.3,0,3.5,0c29.5,0,59,0,88.2,0C189,39.1,225.8,127.4,225.7,195.8z"/>
	<path class="st7" d="M422.5,260.1c-21.8-2.9-42.8-7.7-63.9-13.6C356.2,154,330,70.4,266.3,0.4c22.8,0,45.2,0,68.3,0
		c6.5,5.5,12.7,12.5,18.7,19.5c30,34.9,48.7,75.4,58.7,120.2c6.9,30.6,9.7,61.7,10.2,93.1C422.4,241.9,422.6,250.7,422.5,260.1z"/>
	<path class="st6" d="M327.6,236.7c-24.6-8.2-47.4-18.5-70.5-28.1c-7.7-78-33.5-148.3-86.2-208.1c23.2,0,45.8,0,69.1,0
		c17.1,16.1,31.9,34.7,44.3,55.4c18.2,30.3,29.2,63.2,35.7,97.8c4.8,25.6,6.7,51.4,7.5,77.4C327.6,232.6,327.6,234.3,327.6,236.7z"
		/>
	<path class="st4" d="M2120.8,330.3c-41.9,0-83.7,0-125.9,0c-0.8,6,0,11.5,1,17c2.2,12.7,6.7,24.4,15.2,34.2
		c13.6,15.6,31.2,20.8,51.2,18.9c15.5-1.5,30.3-5.7,44.7-13.1c0,7.8,0,15.3,0,23.2c-6.8,3.2-14.4,5.1-22,6.8
		c-19.1,4-38.2,5.3-57.4,0.6c-24.9-6-41.7-21.3-50.7-45.1c-7.4-19.8-9-40.4-7.4-61.4c1.2-15.8,4.9-30.9,12.5-44.8
		c11.4-21.1,28.3-35.3,52.5-38.9c34.5-5.2,63.5,8,77.5,41.1C2120.4,288.3,2121.7,308.9,2120.8,330.3z M2095.8,310
		c0.2-7.4-0.7-14.2-2.1-20.8c-2.6-12.3-7-23.8-16.6-32.3c-15.2-13.5-39.3-14.1-56.3-1.4c-15.9,11.9-23.6,28.4-26,47.7
		c-0.3,2.2-1.2,4.6,0.5,6.8C2028.6,310,2061.9,310,2095.8,310z"/>
	<path class="st4" d="M1455.6,330.3c-42.2,0-84.1,0-126.4,0c-0.7,8.7,0.7,16.7,2.9,24.5c6.3,22.8,19.6,39,43.6,44.6
		c13,3,25.8,1.1,38.5-1.9c9.4-2.2,18.4-5.5,27.4-10.1c0,8,0,15.4,0,23.2c-8.4,3.8-17.6,6-26.9,7.7c-16,3-32,3.7-48.1,0.7
		c-25.9-4.9-44.8-19.1-54-43.8c-12.8-34.3-13.2-69.2,1.6-103.1c10.3-23.8,28.1-40.1,54.6-44.2c38.4-5.9,68.3,10.2,81,49
		C1455.4,293.9,1456.3,311.8,1455.6,330.3z M1429.8,310c1.3-12.3-2.9-30.5-8.9-41.4c-14-25.2-41.1-25.9-57.8-17.7
		c-17.9,8.8-27.4,24.2-32.1,42.9c-1.3,5.2-2.6,10.6-1.7,16.2C1362.9,310,1396.2,310,1429.8,310z"/>
	<path class="st3" d="M1078.8,303c0.4-11.7,0.5-22.6-3.1-33.2c-4.7-13.9-15.7-21.9-31.3-23c-21-1.4-40.7,2.4-59,13.2
		c-0.7,0.4-1.3,1-2.7,0.7c0-6.9,0-14,0-21.5c7.9-4,16.6-6.5,25.5-8.7c16.9-4.2,33.9-5.4,51-1.8c23.4,5,36.4,18.7,40.8,42.1
		c1.5,8.1,2.1,16.2,2.1,24.3c0,30.7,0,61.3,0,92c0,9.6,0.7,19.2,1.8,29.1c-7.6,0-14.9,0-22.6,0c0-9.4,0-18.6,0-27.8
		c-1.6-0.4-1.8,0.6-2.2,1.3c-10.4,17.7-26.5,26.7-46.1,30c-14.7,2.5-29.3,1.2-43.1-4.8c-18.4-8.1-27.7-22.8-29.1-42.5
		c-1.2-16.5,2.2-31.9,14-44.4c9.7-10.3,22.2-15.7,35.6-19.1c18.8-4.9,38.1-5.6,57.4-5.9C1071.4,302.9,1074.8,303,1078.8,303z
		 M1078.8,323.1c-15.4-0.5-30.3,0.1-45.2,2.3c-9.4,1.4-18.6,3.7-27.1,8.1c-11.2,5.8-18.5,14.6-20.2,27.3
		c-2.6,19.1,4.7,34.6,26.3,38.9c8.4,1.7,16.9,1.5,25.3-0.1c17.8-3.4,30-13.4,36.2-30.6C1079.4,354.3,1079.2,339,1078.8,323.1z"/>
	<path class="st2" d="M443.9,427.9c1-24.2,3-48,4.6-72.1c26.5,2,52.6,2.2,78.6-1c25.8-3.1,50.9-9.2,75.9-18.6c0,24.4,0,48.4,0,73.1
		C552.3,431.5,499.1,435.5,443.9,427.9z"/>
	<path class="st2" d="M227,216.4c0.6,16.8,1.4,33.6,0.1,50.3c-2.2,0.5-3.8-0.7-5.4-1.3c-38.6-15.1-77.6-28.7-118-37.9
		c-24.2-5.5-48.6-9.4-73.4-10.9c-9.8-0.6-19.6-0.6-29.7-0.8c0-16.2,0-32.3,0-48.7c9.9-1.5,20-1.4,30.1-1.2
		c44.7,1,87.5,11.2,129.6,25.3c21.6,7.2,42.8,15.5,64,23.8C225.1,215.4,225.9,215.9,227,216.4z"/>
	<path class="st3" d="M910.9,167.7c-0.5,7.7-0.9,15.1-1.4,22.4c-0.8,0.7-1.4,0.5-2.1,0.2c-15.4-7-31.8-9.2-48.6-9.8
		c-16.1-0.6-31.9,0.9-47.1,6.9c-25.6,10-43.6,28.1-53.1,53.7c-13.2,35.6-12.7,71.3,3.5,105.8c13.5,28.8,37.5,44.8,68.5,50
		c22.3,3.7,44.4,2.2,66.2-3.8c4.1-1.1,7.9-3.2,12.4-5c0.5,7.5,1,14.6,1.5,21.8c-6.9,4.2-14.4,6.1-22.1,7.5c-26,5-52,5.4-77.6-1.9
		c-40.2-11.4-67.1-37.2-79.3-77.2c-11.4-37.2-10.7-74.4,5.3-110.2c16.8-37.8,46.8-59.6,87.2-67.1c25.6-4.8,51-2.8,76.2,3
		c2.3,0.5,4.5,1.3,6.6,2.1C908.3,166.3,909.3,166.9,910.9,167.7z"/>
	<path class="st2" d="M223.6,344.3c-71.5-33.7-143.7-61-223.5-64.4c0-7,0-13.9,0-20.8c0-6.8,0-13.6,0-20.8c5.3-1,10.5-1.2,15.8-1.3
		c31-0.7,61.4,3.1,91.5,10.1c40.3,9.4,78.9,23.9,117.2,39.2c0.6,0.2,1.1,0.6,1.9,1.1C226.1,306.1,224.6,324.8,223.6,344.3z"/>
	<path class="st5" d="M1497.6,231c7.2,0,14.4,0,21.9,0c0,10.4,0,20.6,0,31.2c1.9-0.5,2.1-1.9,2.6-2.9c10.6-21,28.1-31.3,51.2-32.4
		c10.5-0.5,21-0.2,31.1,3.2c19,6.4,29.9,20.2,35.3,39c2.8,9.5,3.6,19.3,3.6,29.1c0.2,38.3,0.1,76.6,0.1,115c0,0.8-0.1,1.6-0.2,2.9
		c-7.6,0-15.1,0-22.7,0c-1-1.7-0.5-3.5-0.5-5.3c0-36.5,0-73,0-109.5c0-10.4-1.3-20.6-5.2-30.3c-6.1-15-17.4-23-33.6-24.2
		c-14.9-1.1-28.6,2-39.8,12.4c-9.6,8.9-14.6,20.4-17.4,33c-1.6,7.2-2.3,14.4-2.2,21.8c0.1,32.2,0,64.3,0,96.5c0,1.8,0.4,3.6-0.5,5.7
		c-7.3,0-14.7,0-22.8,0C1497.7,354.5,1499.1,293,1497.6,231z"/>
	<path class="st2" d="M603.7,519.2c-0.7,14.8,1.4,28.7-1.8,42.3c-5.9,24.5-28.4,42.1-53.5,42.1c-27.1,0-54.3,0-81.4,0
		c-1.5,0-3,0-5,0c-8.4-24.4-13.3-49.5-16.2-76C499,536.5,551.3,535.1,603.7,519.2z"/>
	<path class="st2" d="M2285.6,416.1c0-2.1,0-4,0-5.8c0-36.3,0-72.6,0-109c0-7.8-0.9-15.6-2.9-23.2c-5.4-20.6-18.7-31.1-39.9-31.6
		c-22.5-0.6-39.9,10.6-48.8,31.2c-5.2,12-6.9,24.6-7,37.5c-0.2,31.7-0.1,63.3-0.1,95c0,1.8,0,3.6,0,5.9c-7.7,0-15,0-22.9,0
		c-0.6-61.6,0.7-123.1-0.8-184.9c6.9,0,14,0,21.4,0c0,10.3,0,20.6,0,30.8c2.1,0.5,2.1-1.1,2.5-1.9c11.5-23,30.7-33.1,55.8-33.3
		c9.2-0.1,18.3,0.4,27.1,3.4c19.6,6.7,30.5,21,35.6,40.5c2.1,7.9,3.1,16,3.1,24.2c0,39.5,0,79,0,118.5c0,0.8-0.1,1.6-0.2,2.8
		C2301.2,416.1,2293.8,416.1,2285.6,416.1z"/>
	<path class="st6" d="M320.9,485.8c1.5,20.3,3.5,40.1,7,59.8c3.4,19.5,8.2,38.6,14.5,57.8c-24.4,0-48.4,0-73,0
		c-17.6-49.5-21.4-101.1-20.3-154.4C273.1,461.7,296.5,474.4,320.9,485.8z"/>
	<path class="st2" d="M0.3,340.6c0-13.2,0-26,0-39.3c9.9-0.3,19.7,0.3,29.4,1.1c55.5,4.7,106.8,23.5,157.1,46.2
		c11.4,5.1,22.6,10.5,33.9,15.8c0.4,0.2,0.8,0.6,1.6,1.1c-0.7,15.2-1.5,30.6-2.3,46.5C150.5,376.1,79.4,346.5,0.3,340.6z"/>
	<path class="st2" d="M444.2,506.9c-1.8-19.5-1-38.5-1.1-58.5c54.5,8,107.8,5.6,160.3-11.8c0,18.7,0,37,0,55.7
		C551.8,513.5,498.7,516.1,444.2,506.9z"/>
	<path class="st3" d="M2460.7,251c-35.8,0-70.9,0-106.4,0c0-6.7,0-13.1,0-19.8c44.2,0,88.5,0,133.1,0c0,6.4,0,13,0,20.3
		c-36.5,47.7-73.3,96-110.9,145.1c37.5,0,74.1,0,111,0c0,6.9,0,13.1,0,19.6c-45.9,0-91.7,0-137.7,0c0-6.5,0-12.8,0-19.7
		C2386.5,348.4,2423.3,300,2460.7,251z"/>
	<path class="st3" d="M1822.1,162.9c8.2,0,16.2,0,24.8,0c0,76.9,0,153.7,0,231.1c34.2,0,67.7,0,101.7,0c0,7.6,0,14.7,0,22.1
		c-42,0-84,0-126.4,0C1822.1,331.8,1822.1,247.6,1822.1,162.9z"/>
	<path class="st3" d="M450.2,333.9c0.8-16.1,2-32.3,2.3-48.9c25.9,1.8,51.3,1.7,76.6-1.5c25.3-3.2,50-9.2,74.3-18.5
		c0,14.5,0,28.3,0,42.2C568.4,327.6,487.7,341.8,450.2,333.9z"/>
	<path class="st6" d="M367.5,603.6c-11.4-34.1-16.6-68.9-18.4-105.1c22.9,9.6,45.8,17.6,69.9,23.4c3.6,27.7,9.2,54.9,18.3,81.7
		C413.9,603.6,390.9,603.6,367.5,603.6z"/>
	<path class="st1" d="M1178.6,416.2c-7.6,0-14.8,0-22.4,0c0-90.7,0-181.3,0-272.1c7.3,0,14.7,0,22.4,0
		C1178.6,234.6,1178.6,325.1,1178.6,416.2z"/>
	<path class="st3" d="M1259.5,416.2c-7.5,0-14.8,0-22.4,0c0-90.7,0-181.2,0-272.1c7.3,0,14.7,0,22.4,0
		C1259.5,234.6,1259.5,325.1,1259.5,416.2z"/>
	<path class="st8" d="M355.6,336.3c21,6.6,41.5,11.8,62.6,15.5c-1.2,23.8-2.9,47.1-3.4,70.9c-22-4.8-43.1-11-64-18.8
		C352.4,381.5,354,359.3,355.6,336.3z"/>
	<path class="st8" d="M325.1,326c-1.3,22.2-2.6,43.9-3.9,66c-23.3-9.7-45-21.5-67.1-32.8c1.3-19.7,2.6-39.2,3.9-59.4
		C280.4,308.8,302.4,317.9,325.1,326z"/>
	<path class="st9" d="M416.9,501.1c-23.7-5.8-46.1-13.4-68.3-22.5c-0.4-18.3,0.3-36.5,1.2-55.4c21.6,8,42.8,15,64.7,19.8
		C414.8,462.4,415.1,481.5,416.9,501.1z"/>
	<path class="st8" d="M249.9,428.1c0.1-16.1,1.7-32,2.5-48.5c22.8,10.9,45,21.6,67.8,31.5c-0.3,18.2-0.5,36.2-0.1,54.7
		C295.7,454.6,273.2,441.1,249.9,428.1z"/>
	<path class="st8" d="M258.3,228.9c23.6,9.5,46.3,18.7,69.5,27c-0.6,17-0.6,33.8-1.9,51.2c-23.1-7.6-44.9-17.5-67.3-26.8
		C259.1,263.4,259.3,246.4,258.3,228.9z"/>
	<path class="st9" d="M422.1,281.3c-0.8,16.7-1.6,33-2.5,49.6c-21.4-3.2-41.9-7.9-62.7-13.8c0.8-16.8,1.6-33.4,1.7-50.9
		C379.6,272.5,400.3,277.9,422.1,281.3z"/>
	<path class="st1" d="M1778.7,306c0,8.3,0,16.3,0,24.6c-30.4,0-60.6,0-91.1,0c0-8.1,0-16.1,0-24.6C1717.9,306,1748.1,306,1778.7,306
		z"/>
	<path class="st0" d="M2095.8,310c-33.9,0-67.1,0-100.4,0c-1.7-2.3-0.8-4.7-0.5-6.8c2.3-19.3,10-35.8,26-47.7
		c17-12.7,41.1-12.1,56.3,1.4c9.6,8.5,14,20,16.6,32.3C2095.1,295.9,2096,302.6,2095.8,310z"/>
	<path class="st0" d="M1429.8,310c-33.6,0-66.9,0-100.5,0c-0.9-5.6,0.4-10.9,1.7-16.2c4.7-18.7,14.2-34.1,32.1-42.9
		c16.7-8.2,43.8-7.5,57.8,17.7C1426.9,279.5,1431.1,297.7,1429.8,310z"/>
	<path class="st0" d="M1078.8,323.1c0.3,15.9,0.6,31.2-4.6,45.9c-6.1,17.2-18.4,27.2-36.2,30.6c-8.4,1.6-16.9,1.8-25.3,0.1
		c-21.6-4.3-28.9-19.8-26.3-38.9c1.7-12.7,9-21.5,20.2-27.3c8.5-4.5,17.7-6.8,27.1-8.1C1048.5,323.2,1063.4,322.6,1078.8,323.1z"/>
</g>
</svg>
